<?xml version="1.0"?>
<svg xmlns="http://www.w3.org/2000/svg"
xmlns:xlink="http://www.w3.org/1999/xlink" xmlns:cml="http://www.xml-cml.org/schema" width="409.357" height="224.995" x="0" y="0" font-family="sans-serif" stroke="rgb(0,0,0)" stroke-width="1"  stroke-linecap="round">
<rect x="0%" y="0%" width="100%" height="100%" stroke-width="0" fill="rgb(255,255,255)"  />
<line x1="358.1" y1="106.5" x2="346.0" y2="113.5" stroke="rgb(0,0,0)"  stroke-width="1.0"/>
<line x1="323.5" y1="113.5" x2="300.1" y2="100.0" stroke="rgb(0,0,0)"  stroke-width="1.0"/>
<line x1="188.4" y1="124.1" x2="161.9" y2="118.4" stroke="rgb(0,0,0)"  stroke-width="1.0"/>
<line x1="105.9" y1="86.1" x2="79.1" y2="56.4" stroke="rgb(0,0,0)"  stroke-width="1.0"/>
<line x1="79.1" y1="56.4" x2="52.7" y2="62.0" stroke="rgb(0,0,0)"  stroke-width="1.0"/>
<line x1="97.6" y1="125.2" x2="72.9" y2="136.2" stroke="rgb(0,0,0)"  stroke-width="1.0"/>
<line x1="132.2" y1="145.2" x2="135.0" y2="172.1" stroke="rgb(0,0,0)"  stroke-width="1.0"/>
<line x1="217.3" y1="163.3" x2="244.0" y2="160.5" stroke="rgb(0,0,0)"  stroke-width="1.0"/>
<line x1="222.6" y1="155.5" x2="241.2" y2="153.6" stroke="rgb(0,0,0)"  stroke-width="1.0"/>
<line x1="259.8" y1="146.4" x2="265.4" y2="120.0" stroke="rgb(0,0,0)"  stroke-width="1.0"/>
<line x1="265.4" y1="120.0" x2="230.8" y2="100.0" stroke="rgb(0,0,0)"  stroke-width="1.0"/>
<line x1="256.6" y1="123.2" x2="232.4" y2="109.2" stroke="rgb(0,0,0)"  stroke-width="1.0"/>
<line x1="230.8" y1="100.0" x2="210.7" y2="118.1" stroke="rgb(0,0,0)"  stroke-width="1.0"/>
<line x1="206.4" y1="138.6" x2="217.3" y2="163.3" stroke="rgb(0,0,0)"  stroke-width="1.0"/>
<line x1="161.9" y1="118.4" x2="132.2" y2="145.2" stroke="rgb(0,0,0)"  stroke-width="1.0"/>
<line x1="132.2" y1="145.2" x2="97.6" y2="125.2" stroke="rgb(0,0,0)"  stroke-width="1.0"/>
<line x1="97.6" y1="125.2" x2="105.9" y2="86.1" stroke="rgb(0,0,0)"  stroke-width="1.0"/>
<line x1="105.9" y1="86.1" x2="132.7" y2="83.3" stroke="rgb(0,0,0)"  stroke-width="1.0"/>
<line x1="151.0" y1="93.8" x2="161.9" y2="118.4" stroke="rgb(0,0,0)"  stroke-width="1.0"/>
<line x1="300.1" y1="100.0" x2="300.1" y2="73.2" stroke="rgb(0,0,0)"  stroke-width="1.0"/>
<line x1="292.9" y1="94.0" x2="292.9" y2="75.2" stroke="rgb(0,0,0)"  stroke-width="1.0"/>
<line x1="288.8" y1="53.5" x2="265.4" y2="40.0" stroke="rgb(0,0,0)"  stroke-width="1.0"/>
<line x1="265.4" y1="40.0" x2="242.2" y2="53.4" stroke="rgb(0,0,0)"  stroke-width="1.0"/>
<line x1="263.8" y1="49.2" x2="247.6" y2="58.6" stroke="rgb(0,0,0)"  stroke-width="1.0"/>
<line x1="230.8" y1="73.0" x2="230.8" y2="100.0" stroke="rgb(0,0,0)"  stroke-width="1.0"/>
<line x1="265.4" y1="120.0" x2="300.1" y2="100.0" stroke="rgb(0,0,0)"  stroke-width="1.0"/>
<text x="365.357231" y="108.000000" fill="rgb(102,102,102)"  stroke="rgb(102,102,102)" stroke-width="1" font-size="16" >CH</text>
<text x="389.357231" y="111.680000" fill="rgb(102,102,102)"  stroke="rgb(102,102,102)" stroke-width="1" font-size="13" >3</text>
<text x="328.716215" y="128.000000" fill="rgb(12,12,255)"  stroke="rgb(12,12,255)" stroke-width="1" font-size="16" >N</text>
<text x="328.716215" y="144.000000" fill="rgb(12,12,255)"  stroke="rgb(12,12,255)" stroke-width="1" font-size="16" >H</text>
<text x="294.075199" y="68.000000" fill="rgb(12,12,255)"  stroke="rgb(12,12,255)" stroke-width="1" font-size="16" >N</text>
<text x="224.793167" y="68.000000" fill="rgb(12,12,255)"  stroke="rgb(12,12,255)" stroke-width="1" font-size="16" >N</text>
<text x="251.117715" y="167.125904" fill="rgb(12,12,255)"  stroke="rgb(12,12,255)" stroke-width="1" font-size="16" >N</text>
<text x="195.067374" y="134.765224" fill="rgb(12,12,255)"  stroke="rgb(12,12,255)" stroke-width="1" font-size="16" >N</text>
<text x="139.672004" y="89.906938" fill="rgb(255,12,12)"  stroke="rgb(255,12,12)" stroke-width="1" font-size="16" >O</text>
<text x="22.000000" y="72.678751" fill="rgb(255,12,12)"  stroke="rgb(255,12,12)" stroke-width="1" font-size="16" >HO</text>
<text x="43.032842" y="149.483447" fill="rgb(255,12,12)"  stroke="rgb(255,12,12)" stroke-width="1" font-size="16" >HO</text>
<text x="130.396815" y="192.994857" fill="rgb(255,12,12)"  stroke="rgb(255,12,12)" stroke-width="1" font-size="16" >OH</text>
<text font-size="18.000000" fill ="black" font-family="sans-serif"
x="10.000000" y="20.000000" >TEST</text>
<title>TEST - OBDepict</title>
</svg>
